HIERARCHY
ROOT ui
{
	 OFFSET 0 0 0
	 CHANNELS 3 XPosition YPosition Z Position
	 EndSite
	 {
	 OFFSET 0 -1 0
	 }
}
ROOT li
{
	 OFFSET 0 0 0
	 CHANNELS 3 XPosition YPosition Z Position
	 EndSite
	 {
	 OFFSET 0 -1 0
	 }
}
ROOT ul
{
	 OFFSET 0 0 0
	 CHANNELS 3 XPosition YPosition Z Position
	 EndSite
	 {
	 OFFSET 0 -1 0
	 }
}
ROOT ll
{
	 OFFSET 0 0 0
	 CHANNELS 3 XPosition YPosition Z Position
	 EndSite
	 {
	 OFFSET 0 -1 0
	 }
}
ROOT tt
{
	 OFFSET 0 0 0
	 CHANNELS 3 XPosition YPosition Z Position
	 EndSite
	 {
	 OFFSET 0 -1 0
	 }
}
ROOT tb
{
	 OFFSET 0 0 0
	 CHANNELS 3 XPosition YPosition Z Position
	 EndSite
	 {
	 OFFSET 0 -1 0
	 }
}
ROOT td
{
	 OFFSET 0 0 0
	 CHANNELS 3 XPosition YPosition Z Position
	 EndSite
	 {
	 OFFSET 0 -1 0
	 }
}
ROOT v
{
	 OFFSET 0 0 0
	 CHANNELS 3 XPosition YPosition Z Position
	 EndSite
	 {
	 OFFSET 0 -1 0
	 }
}
ROOT bn
{
	 OFFSET 0 0 0
	 CHANNELS 3 XPosition YPosition Z Position
	 EndSite
	 {
	 OFFSET 0 -1 0
	 }
}
MOTION
Frames: 29
Frame Time: 0.002
0.048773880004882815	-0.005301482200622558	0		0.488937744140625	-2.511163818359375	0		-0.8761377563476562	-0.0853915557861328	0		-0.5506058959960938	-2.463017578125	0		1.8798629150390624	-1.03298876953125	0		3.2556064453125	-0.22468951416015626	0		4.44850439453125	0.1325438232421875	0		5.8270263671875	0.21151954650878907	0		-0.35947967529296876	5.8504111328125	0		
-0.028648130416870116	-0.003164128065109253	0		0.4885509948730469	-2.51084130859375	0		-0.8765733032226563	-0.08509658813476563	0		-0.485136474609375	-2.476421630859375	0		1.882489013671875	-1.0286707763671874	0		3.252895751953125	-0.25028858947753907	0		4.44400048828125	0.12698897552490235	0		5.82449267578125	0.19328892517089843	0		-0.32597222900390627	5.8563525390625	0		
-0.029068342208862306	-0.002862643003463745	0		0.46042892456054685	-2.485236083984375	0		-0.9509776000976562	-0.08301419830322265	0		-0.5384712524414063	-2.470559326171875	0		1.870209716796875	-1.0162192993164063	0		3.2723916015625	-0.2581620178222656	0		4.46728857421875	0.10008783721923828	0		5.82838232421875	0.17305885314941405	0		-0.3254824523925781	5.8546396484375	0		
-0.02946928024291992	-0.002573331117630005	0		0.4996926574707031	-2.517370361328125	0		-0.8652763671875	-0.07364756774902344	0		-0.4990580139160156	-2.488697998046875	0		1.8819613037109375	-1.00205224609375	0		3.291808837890625	-0.2750736389160156	0		4.4498134765625	0.09357518768310547	0		5.8353583984375	0.20281881713867186	0		-0.3428712158203125	5.858109375	0		
0.05421548080444336	0.0028046700954437254	0		0.5043819580078125	-2.510150390625	0		-0.93056201171875	-0.064673583984375	0		-0.499443115234375	-2.488419921875	0		1.9017095947265625	-0.9899985961914063	0		3.29559326171875	-0.25985516357421873	0		4.4704384765625	0.09360791778564453	0		5.8350908203125	0.20325369262695311	0		-0.34322097778320315	5.85838720703125	0		
-0.027140266418457033	0.0019327930212020873	0		0.49335693359375	-2.4777783203125	0		-0.8738408203125	-0.0590111083984375	0		-0.5079067687988281	-2.497066162109375	0		1.8645753173828126	-0.9693638916015626	0		3.274920654296875	-0.2904155578613281	0		4.4719501953125	0.07979756164550782	0		5.83122119140625	0.18984376525878907	0		-0.32652529907226563	5.85547119140625	0		
0.04650578689575195	-0.0036125481128692627	0		0.46401712036132814	-2.4772294921875	0		-0.8650635375976562	-0.0518449592590332	0		-0.5183659057617187	-2.507701904296875	0		1.8723787841796875	-0.9582374267578125	0		3.288607666015625	-0.29137850952148436	0		4.47945166015625	0.060878063201904295	0		5.823185546875	0.19548062133789063	0		-0.3267142639160156	5.85572412109375	0		
-0.030727867126464845	-0.001555371046066284	0		0.49067413330078125	-2.480299560546875	0		-0.8722487182617188	-0.0455178108215332	0		-0.49180633544921876	-2.51974755859375	0		1.8442908935546876	-0.9407520751953125	0		3.2942763671875	-0.29829159545898437	0		4.468205078125	0.06111814117431641	0		5.8271923828125	0.17476536560058595	0		-0.32682012939453126	5.85596337890625	0		
0.04605768203735352	-0.0031690869331359862	0		0.46545635986328127	-2.474830322265625	0		-0.92737060546875	-0.03768495559692383	0		-0.5201867065429687	-2.5292158203125	0		1.8623104248046876	-0.9177875366210938	0		3.312207275390625	-0.28536962890625	0		4.477845703125	0.04609289932250977	0		5.83068212890625	0.19031332397460937	0		-0.34578982543945314	5.86139208984375	0		
0.04994991683959961	9.84180986881256E-4	0		0.49727261352539065	-2.469994140625	0		-0.9144044189453125	-0.0265958251953125	0		-0.5204244995117188	-2.52899951171875	0		1.839388916015625	-0.8934061889648437	0		3.30779833984375	-0.3082408752441406	0		4.4736318359375	0.0401805305480957	0		5.8341982421875	0.20405564880371094	0		-0.345738525390625	5.8616025390625	0		
-0.03118679618835449	-9.569100141525269E-4	0		0.4710926208496094	-2.467549072265625	0		-0.9023958740234375	-0.015509528160095215	0		-0.4897076721191406	-2.53613330078125	0		1.8544510498046876	-0.8744579467773438	0		3.3227744140625	-0.29934808349609376	0		4.48131787109375	0.02110640335083008	0		5.8304892578125	0.1902414093017578	0		-0.35974234008789063	5.8509501953125	0		
-0.00526760196685791	-0.0010720360279083251	0		0.49585714721679686	-2.472673583984375	0		-0.9103228149414062	-0.001219946026802063	0		-0.5189971923828125	-2.545630615234375	0		1.8665096435546875	-0.858498291015625	0		3.30453173828125	-0.3131197814941406	0		4.470240234375	0.021210552215576172	0		5.82679248046875	0.17464581298828125	0		-0.3114014587402344	5.86760791015625	0		
-0.03132757568359375	-6.359220147132874E-4	0		0.46872674560546873	-2.46924755859375	0		-0.9012974853515625	0.006871050834655762	0		-0.47634243774414065	-2.561926025390625	0		1.8785755615234374	-0.8435565795898438	0		3.2954794921875	-0.31100787353515624	0		4.47203759765625	0.008154456138610839	0		5.83037939453125	0.18996305847167969	0		-0.3112177429199219	5.86777294921875	0		
0.045603965759277346	-0.002341303110122681	0		0.49859158325195313	-2.46745849609375	0		-0.95636865234375	0.005649715900421143	0		-0.5015549011230469	-2.566493896484375	0		1.8936951904296875	-0.8246622924804687	0		3.32014892578125	-0.33527947998046875	0		4.47775439453125	-0.012957756996154784	0		5.83033642578125	0.18978431701660156	0		-0.2949403381347656	5.87574755859375	0		
-0.02435580635070801	0.006552077770233154	0		0.4775415954589844	-2.45812255859375	0		-0.8683046875	0.015843470573425292	0		-0.48473223876953125	-2.568535888671875	0		1.9089947509765626	-0.7897799682617187	0		3.321380859375	-0.30829940795898436	0		4.48261328125	-0.02106572914123535	0		5.8339248046875	0.20334376525878906	0		-0.31370193481445313	5.88109326171875	0		
-0.02844768524169922	0.003710552930831909	0		0.5043675537109376	-2.4603251953125	0		-0.9502036743164063	0.030893749237060546	0		-0.4998415222167969	-2.5642392578125	0		1.909237548828125	-0.7597393188476562	0		3.29417919921875	-0.3200102844238281	0		4.48050927734375	-0.025096263885498047	0		5.83024951171875	0.18942306518554688	0		-0.29656640625	5.87903076171875	0		
-0.03156403350830078	-1.5343500673770905E-4	0		0.5021805114746094	-2.463218017578125	0		-0.8693353271484375	0.0251297607421875	0		-0.46807843017578127	-2.57147509765625	0		1.91539453125	-0.7367689208984375	0		3.30417333984375	-0.31312918090820313	0		4.48228076171875	-0.039164592742919925	0		5.826556640625	0.17379202270507813	0		-0.3256856994628906	5.85746484375	0		
-0.031649406433105466	-6.304600089788437E-5	0		0.5020252380371094	-2.463142822265625	0		-0.9422711181640625	0.039053962707519534	0		-0.4993681335449219	-2.58302734375	0		1.9156214599609376	-0.7067356567382812	0		3.3090009765625	-0.3201885681152344	0		4.47205029296875	-0.05209042739868164	0		5.8264921875	0.17366169738769532	0		-0.19234646606445313	5.88008447265625	0		
-0.0317401123046875	1.4298999682068824E-5	0		0.4789682312011719	-2.454822265625	0		-0.9373167114257812	0.04309638977050781	0		-0.4645539245605469	-2.58632861328125	0		1.8038775634765625	-0.6734585571289062	0		3.313058349609375	-0.30623358154296876	0		4.47195849609375	-0.05211687088012695	0		5.8150849609375	0.1894398193359375	0		-0.29631747436523437	5.8793232421875	0		
0.04516229248046875	-0.001780545949935913	0		0.48288751220703124	-2.4508125	0		-0.9673065185546875	0.05150984191894531	0		-0.49964572143554686	-2.582867431640625	0		1.7541661376953126	-0.6388722534179687	0		3.317781494140625	-0.323283935546875	0		4.4718759765625	-0.052133007049560545	0		5.830001953125	0.18896650695800782	0		-0.3595922546386719	5.853095703125	0		
0.04510595321655273	-0.0017325249910354614	0		0.5097763977050781	-2.4530712890625	0		-0.945296630859375	0.057324676513671874	0		-0.46984793090820315	-2.593146728515625	0		1.7554365234375	-0.6088587036132812	0		3.30688916015625	-0.30815518188476565	0		4.474517578125	-0.07917239379882812	0		5.81134619140625	0.17385723876953124	0		-0.32649899291992185	5.85977978515625	0		
0.04508597183227539	-0.001698984980583191	0		0.4718293151855469	-2.444617431640625	0		-0.9833137817382812	0.057790218353271486	0		-0.5187842407226563	-2.5835625	0		1.753702392578125	-0.582817626953125	0		3.315843994140625	-0.3102471008300781	0		4.462453125	-0.08303861236572266	0		5.82630810546875	0.17343321228027345	0		-0.19223658752441405	5.880318359375	0		
-0.03187956237792969	1.8021999299526215E-4	0		0.4889058837890625	-2.4387900390625	0		-0.9490961303710937	0.07543163299560547	0		-0.48483206176757815	-2.588921142578125	0		1.7579422607421875	-0.5628499755859375	0		3.28281884765625	-0.31386962890625	0		4.4563935546875	-0.08996630096435547	0		5.81134326171875	0.1738399658203125	0		-0.3264365844726563	5.85983642578125	0		
-0.035858978271484376	-0.00277005410194397	0		0.4848605651855469	-2.447739501953125	0		-1.0209931640625	0.08024014282226563	0		-0.5098313293457031	-2.593636962890625	0		1.7593314208984374	-0.5328573608398437	0		3.317669677734375	-0.3322531433105469	0		4.47726708984375	-0.1061930160522461	0		5.8113818359375	0.1738529052734375	0		-0.34435076904296874	5.8630419921875	0		
0.057277984619140625	0.0011820579767227173	0		0.5080877685546875	-2.436004638671875	0		-0.977864501953125	0.08374761199951172	0		-0.5165906372070312	-2.580570068359375	0		1.7796978759765625	-0.5080855712890625	0		3.312171142578125	-0.2951868591308594	0		4.46144482421875	-0.09800957489013672	0		5.81508203125	0.189341552734375	0		-0.3442822875976562	5.8630322265625	0		
-0.03161954307556152	1.5422999858856202E-4	0		0.4723443298339844	-2.42462255859375	0		-0.9397479858398438	0.08329676055908203	0		-0.5205139770507813	-2.58554931640625	0		1.769133056640625	-0.479977294921875	0		3.292047607421875	-0.31696728515625	0		4.46544140625	-0.10905281829833985	0		5.81152978515625	0.1738819122314453	0		-0.31210525512695314	5.87065087890625	0		
-0.03146882438659668	1.2026400119066238E-4	0		0.4954308776855469	-2.431909423828125	0		-0.9455416870117187	0.08832366180419922	0		-0.4904490966796875	-2.594920654296875	0		1.764532470703125	-0.4579454345703125	0		3.290345458984375	-0.30395867919921876	0		4.45644873046875	-0.12195703887939453	0		5.80380078125	0.17582919311523437	0		-0.3271023864746094	5.860783203125	0		
-0.03128512191772461	7.505899667739868E-5	0		0.470689453125	-2.42667236328125	0		-0.9893001098632812	0.09376211547851562	0		-0.5031789855957032	-2.588824462890625	0		1.76588671875	-0.44298974609375	0		3.301363525390625	-0.31910162353515625	0		4.46356591796875	-0.12804751586914062	0		5.80393310546875	0.17582351684570313	0		-0.32694985961914064	5.86173583984375	0		
0.04288925933837891	-0.004804756164550781	0		0.4999300537109375	-2.42704736328125	0		-0.9759443969726562	0.10555350494384766	0		-0.527989501953125	-2.59360498046875	0		1.758314697265625	-0.424943359375	0		3.292946533203125	-0.28703302001953124	0		4.46176806640625	-0.13004579162597657	0		5.79988525390625	0.19149008178710938	0		-0.31167251586914063	5.87051025390625	0		
